{"title":"2013.06.08 - Metallica (As DEHAAN, secret show before Orion Conc","uid":10574745,"size":1697346456,"categoryP":"video","categoryS":"music_videos","magnet":"?xt=urn:btih:0bb52599ff468891ec05594f7449101d8c153bcf&amp;dn=2013.06.08+-+Metallica+%28As+DEHAAN%2C+secret+show+before+Orion+Conc&amp;tr=udp%3A%2F%2Ftracker.openbittorrent.com%3A80&amp;tr=udp%3A%2F%2Fopen.demonii.com%3A1337&amp;tr=udp%3A%2F%2Ftracker.coppersurfer.tk%3A6969&amp;tr=udp%3A%2F%2Fexodus.desync.com%3A6969","seeders":2,"leechers":1,"uploader":"DharmaWorkMan","files":1,"time":1405631519,"description":"Format                                   : MPEG-4\nFormat profile                           : Base Media\nCodec ID                                 : isom\nFile size                                : 1.58 GiB\nDuration                                 : 53mn 8s\nOverall bit rate                         : 4 259 Kbps\nEncoded date                             : UTC 2014-07-16 18:16:48\nTagged date                              : UTC 2014-07-16 18:16:48\n\nVideo\nID                                       : 1\nFormat                                   : AVC\nFormat/Info                              : Advanced Video Codec\nFormat profile                           : &lt;a class=&quot;__cf_email__&quot; href=&quot;/cdn-cgi/l/email-protection&quot; data-cfemail=&quot;e8a0818f80a8a4dcc6d8&quot;&gt;[email&amp;#160;protected]&lt;/a&gt;&lt;script cf-hash='f9e31' type=&quot;text/javascript&quot;&gt;\n/* &lt;![CDATA[ */!function(){try{var t=&quot;currentScript&quot;in document?document.currentScript:function(){for(var t=document.getElementsByTagName(&quot;script&quot;),e=t.length;e--;)if(t[e].getAttribute(&quot;cf-hash&quot;))return t[e]}();if(t&amp;&amp;t.previousSibling){var e,r,n,i,c=t.previousSibling,a=c.getAttribute(&quot;data-cfemail&quot;);if(a){for(e=&quot;&quot;,r=parseInt(a.substr(0,2),16),n=2;a.length-n;n+=2)i=parseInt(a.substr(n,2),16)^r,e+=String.fromCharCode(i);e=document.createTextNode(e),c.parentNode.replaceChild(e,c)}}}catch(u){}}();/* ]]&gt; */&lt;/script&gt;\nFormat settings, CABAC                   : Yes\nFormat settings, ReFrames                : 2 frames\nCodec ID                                 : avc1\nCodec ID/Info                            : Advanced Video Coding\nDuration                                 : 53mn 8s\nBit rate                                 : 4 129 Kbps\nWidth                                    : 1 920 pixels\nHeight                                   : 1 080 pixels\nDisplay aspect ratio                     : 16:9\nFrame rate mode                          : Constant\nFrame rate                               : 29.970 fps\nColor space                              : YUV\nChroma subsampling                       : 4:2:0\nBit depth                                : 8 bits\nScan type                                : Progressive\nBits/(Pixel*Frame)                       : 0.066\nStream size                              : 1.53 GiB (97%)\nTagged date                              : UTC 2014-07-16 18:17:57\n\nAudio\nID                                       : 2\nFormat                                   : AAC\nFormat/Info                              : Advanced Audio Codec\nFormat profile                           : LC\nCodec ID                                 : 40\nDuration                                 : 53mn 8s\nBit rate mode                            : Constant\nBit rate                                 : 126 Kbps\nChannel(s)                               : 2 channels\nChannel positions                        : Front: L R\nSampling rate                            : 44.1 KHz\nCompression mode                         : Lossy\nStream size                              : 47.7 MiB (3%)\nTagged date                              : UTC 2014-07-16 18:17:57\n\n","torrent":{"xt":"urn:btih:0bb52599ff468891ec05594f7449101d8c153bcf","amp;dn":"2013.06.08+-+Metallica+%28As+DEHAAN%2C+secret+show+before+Orion+Conc","amp;tr":["udp%3A%2F%2Ftracker.openbittorrent.com%3A80","udp%3A%2F%2Fopen.demonii.com%3A1337","udp%3A%2F%2Ftracker.coppersurfer.tk%3A6969","udp%3A%2F%2Fexodus.desync.com%3A6969"],"infoHash":"0bb52599ff468891ec05594f7449101d8c153bcf","infoHashBuffer":{"type":"Buffer","data":[11,181,37,153,255,70,136,145,236,5,89,79,116,73,16,29,140,21,59,207]},"announce":[],"urlList":[]}}